<mxfile host="app.diagrams.net" modified="2024-06-12T10:15:19.748Z" agent="Mozilla/5.0 (Windows NT 10.0; Win64; x64) AppleWebKit/537.36 (KHTML, like Gecko) Chrome/122.0.0.0 Safari/537.36" etag="KB7E-U4AXkMWDems0w-C" version="24.4.14" type="device">
  <diagram name="Seite-1" id="-83b8j7StGtTNXKLQQDX">
    <mxGraphModel dx="954" dy="592" grid="1" gridSize="10" guides="1" tooltips="1" connect="1" arrows="1" fold="1" page="1" pageScale="1" pageWidth="1169" pageHeight="827" math="0" shadow="0">
      <root>
        <mxCell id="0" />
        <mxCell id="1" parent="0" />
        <mxCell id="wSOtUR4zhJFM04Z9DMXD-2" value="" style="endArrow=none;dashed=1;html=1;rounded=0;" parent="1" edge="1">
          <mxGeometry width="50" height="50" relative="1" as="geometry">
            <mxPoint x="390" y="810" as="sourcePoint" />
            <mxPoint x="390" y="100" as="targetPoint" />
          </mxGeometry>
        </mxCell>
        <mxCell id="wSOtUR4zhJFM04Z9DMXD-3" value="consumer:SkillConsumer" style="html=1;whiteSpace=wrap;" parent="1" vertex="1">
          <mxGeometry x="980" y="100" width="150" height="50" as="geometry" />
        </mxCell>
        <mxCell id="wSOtUR4zhJFM04Z9DMXD-4" value="report:SkillReport" style="html=1;whiteSpace=wrap;" parent="1" vertex="1">
          <mxGeometry x="720" y="318" width="110" height="50" as="geometry" />
        </mxCell>
        <mxCell id="wSOtUR4zhJFM04Z9DMXD-5" value="a:SkillReportPublisher" style="html=1;whiteSpace=wrap;" parent="1" vertex="1">
          <mxGeometry x="330" y="50" width="130" height="50" as="geometry" />
        </mxCell>
        <mxCell id="wSOtUR4zhJFM04Z9DMXD-6" value="m:Main" style="html=1;whiteSpace=wrap;" parent="1" vertex="1">
          <mxGeometry x="60" y="50" width="110" height="50" as="geometry" />
        </mxCell>
        <mxCell id="wSOtUR4zhJFM04Z9DMXD-7" value="" style="endArrow=none;dashed=1;html=1;rounded=0;entryX=0.545;entryY=1;entryDx=0;entryDy=0;entryPerimeter=0;" parent="1" target="wSOtUR4zhJFM04Z9DMXD-4" edge="1">
          <mxGeometry width="50" height="50" relative="1" as="geometry">
            <mxPoint x="780" y="810" as="sourcePoint" />
            <mxPoint x="780" y="380" as="targetPoint" />
          </mxGeometry>
        </mxCell>
        <mxCell id="wSOtUR4zhJFM04Z9DMXD-9" value="" style="endArrow=classic;html=1;rounded=0;entryX=-0.013;entryY=0.64;entryDx=0;entryDy=0;entryPerimeter=0;" parent="1" target="wSOtUR4zhJFM04Z9DMXD-3" edge="1">
          <mxGeometry width="50" height="50" relative="1" as="geometry">
            <mxPoint x="110" y="133" as="sourcePoint" />
            <mxPoint x="940" y="133" as="targetPoint" />
          </mxGeometry>
        </mxCell>
        <mxCell id="wSOtUR4zhJFM04Z9DMXD-14" value="register(consumer)" style="text;html=1;align=center;verticalAlign=middle;resizable=0;points=[];autosize=1;strokeColor=none;fillColor=none;" parent="1" vertex="1">
          <mxGeometry x="160" y="180" width="120" height="30" as="geometry" />
        </mxCell>
        <mxCell id="wSOtUR4zhJFM04Z9DMXD-15" value="subscriber:List" style="html=1;whiteSpace=wrap;" parent="1" vertex="1">
          <mxGeometry x="540" y="50" width="110" height="50" as="geometry" />
        </mxCell>
        <mxCell id="wSOtUR4zhJFM04Z9DMXD-16" value="" style="endArrow=none;dashed=1;html=1;rounded=0;entryX=0.5;entryY=1;entryDx=0;entryDy=0;" parent="1" target="wSOtUR4zhJFM04Z9DMXD-15" edge="1">
          <mxGeometry width="50" height="50" relative="1" as="geometry">
            <mxPoint x="595" y="810" as="sourcePoint" />
            <mxPoint x="594.5" y="120" as="targetPoint" />
          </mxGeometry>
        </mxCell>
        <mxCell id="wSOtUR4zhJFM04Z9DMXD-18" value="add(consumer)" style="text;html=1;align=center;verticalAlign=middle;resizable=0;points=[];autosize=1;strokeColor=none;fillColor=none;" parent="1" vertex="1">
          <mxGeometry x="420" y="198" width="100" height="30" as="geometry" />
        </mxCell>
        <mxCell id="wSOtUR4zhJFM04Z9DMXD-20" value="" style="endArrow=open;html=1;rounded=0;exitX=0;exitY=1;exitDx=0;exitDy=-5;exitPerimeter=0;endFill=0;" parent="1" source="wSOtUR4zhJFM04Z9DMXD-35" edge="1">
          <mxGeometry width="50" height="50" relative="1" as="geometry">
            <mxPoint x="390" y="270" as="sourcePoint" />
            <mxPoint x="110" y="265" as="targetPoint" />
          </mxGeometry>
        </mxCell>
        <mxCell id="wSOtUR4zhJFM04Z9DMXD-22" value="produce()" style="text;html=1;align=center;verticalAlign=middle;resizable=0;points=[];autosize=1;strokeColor=none;fillColor=none;" parent="1" vertex="1">
          <mxGeometry x="185" y="310" width="70" height="30" as="geometry" />
        </mxCell>
        <mxCell id="wSOtUR4zhJFM04Z9DMXD-24" value="new()" style="text;html=1;align=center;verticalAlign=middle;resizable=0;points=[];autosize=1;strokeColor=none;fillColor=none;" parent="1" vertex="1">
          <mxGeometry x="460" y="318" width="50" height="30" as="geometry" />
        </mxCell>
        <mxCell id="wSOtUR4zhJFM04Z9DMXD-27" value="" style="endArrow=classic;html=1;rounded=0;" parent="1" target="wSOtUR4zhJFM04Z9DMXD-46" edge="1">
          <mxGeometry width="50" height="50" relative="1" as="geometry">
            <mxPoint x="390" y="400" as="sourcePoint" />
            <mxPoint x="1000" y="400" as="targetPoint" />
          </mxGeometry>
        </mxCell>
        <mxCell id="wSOtUR4zhJFM04Z9DMXD-28" value="notify(consumer)" style="text;html=1;align=center;verticalAlign=middle;resizable=0;points=[];autosize=1;strokeColor=none;fillColor=none;" parent="1" vertex="1">
          <mxGeometry x="390" y="378" width="110" height="30" as="geometry" />
        </mxCell>
        <mxCell id="wSOtUR4zhJFM04Z9DMXD-30" value="" style="endArrow=none;dashed=1;html=1;rounded=0;" parent="1" source="wSOtUR4zhJFM04Z9DMXD-46" edge="1">
          <mxGeometry width="50" height="50" relative="1" as="geometry">
            <mxPoint x="1060" y="560" as="sourcePoint" />
            <mxPoint x="1060" y="150" as="targetPoint" />
            <Array as="points">
              <mxPoint x="1060" y="280" />
            </Array>
          </mxGeometry>
        </mxCell>
        <mxCell id="wSOtUR4zhJFM04Z9DMXD-33" value="" style="endArrow=none;dashed=1;html=1;rounded=0;" parent="1" edge="1">
          <mxGeometry width="50" height="50" relative="1" as="geometry">
            <mxPoint x="110" y="810" as="sourcePoint" />
            <mxPoint x="110" y="100" as="targetPoint" />
          </mxGeometry>
        </mxCell>
        <mxCell id="wSOtUR4zhJFM04Z9DMXD-35" value="" style="html=1;points=[[0,0,0,0,5],[0,1,0,0,-5],[1,0,0,0,5],[1,1,0,0,-5]];perimeter=orthogonalPerimeter;outlineConnect=0;targetShapes=umlLifeline;portConstraint=eastwest;newEdgeStyle={&quot;curved&quot;:0,&quot;rounded&quot;:0};" parent="1" vertex="1">
          <mxGeometry x="380" y="200" width="10" height="70" as="geometry" />
        </mxCell>
        <mxCell id="wSOtUR4zhJFM04Z9DMXD-36" value="" style="endArrow=classic;html=1;rounded=0;entryX=0;entryY=0;entryDx=0;entryDy=5;entryPerimeter=0;" parent="1" target="wSOtUR4zhJFM04Z9DMXD-35" edge="1">
          <mxGeometry width="50" height="50" relative="1" as="geometry">
            <mxPoint x="110" y="205" as="sourcePoint" />
            <mxPoint x="610" y="450" as="targetPoint" />
          </mxGeometry>
        </mxCell>
        <mxCell id="wSOtUR4zhJFM04Z9DMXD-37" value="" style="html=1;points=[[0,0,0,0,5],[0,1,0,0,-5],[1,0,0,0,5],[1,1,0,0,-5]];perimeter=orthogonalPerimeter;outlineConnect=0;targetShapes=umlLifeline;portConstraint=eastwest;newEdgeStyle={&quot;curved&quot;:0,&quot;rounded&quot;:0};" parent="1" vertex="1">
          <mxGeometry x="585" y="210" width="10" height="50" as="geometry" />
        </mxCell>
        <mxCell id="wSOtUR4zhJFM04Z9DMXD-38" value="" style="endArrow=classic;html=1;rounded=0;" parent="1" source="wSOtUR4zhJFM04Z9DMXD-35" target="wSOtUR4zhJFM04Z9DMXD-37" edge="1">
          <mxGeometry width="50" height="50" relative="1" as="geometry">
            <mxPoint x="400" y="220" as="sourcePoint" />
            <mxPoint x="610" y="450" as="targetPoint" />
            <Array as="points">
              <mxPoint x="480" y="220" />
            </Array>
          </mxGeometry>
        </mxCell>
        <mxCell id="wSOtUR4zhJFM04Z9DMXD-39" value="" style="endArrow=open;html=1;rounded=0;exitX=0;exitY=1;exitDx=0;exitDy=-5;exitPerimeter=0;endFill=0;" parent="1" source="wSOtUR4zhJFM04Z9DMXD-37" target="wSOtUR4zhJFM04Z9DMXD-35" edge="1">
          <mxGeometry width="50" height="50" relative="1" as="geometry">
            <mxPoint x="580" y="250" as="sourcePoint" />
            <mxPoint x="390" y="250" as="targetPoint" />
          </mxGeometry>
        </mxCell>
        <mxCell id="wSOtUR4zhJFM04Z9DMXD-40" value="" style="html=1;points=[[0,0,0,0,5],[0,1,0,0,-5],[1,0,0,0,5],[1,1,0,0,-5]];perimeter=orthogonalPerimeter;outlineConnect=0;targetShapes=umlLifeline;portConstraint=eastwest;newEdgeStyle={&quot;curved&quot;:0,&quot;rounded&quot;:0};" parent="1" vertex="1">
          <mxGeometry x="380" y="318" width="10" height="252" as="geometry" />
        </mxCell>
        <mxCell id="wSOtUR4zhJFM04Z9DMXD-42" value="" style="endArrow=classic;html=1;rounded=0;" parent="1" target="wSOtUR4zhJFM04Z9DMXD-40" edge="1">
          <mxGeometry width="50" height="50" relative="1" as="geometry">
            <mxPoint x="110" y="330" as="sourcePoint" />
            <mxPoint x="610" y="450" as="targetPoint" />
          </mxGeometry>
        </mxCell>
        <mxCell id="wSOtUR4zhJFM04Z9DMXD-44" value="" style="endArrow=classic;html=1;rounded=0;" parent="1" edge="1">
          <mxGeometry width="50" height="50" relative="1" as="geometry">
            <mxPoint x="390" y="340" as="sourcePoint" />
            <mxPoint x="720" y="340" as="targetPoint" />
          </mxGeometry>
        </mxCell>
        <mxCell id="wSOtUR4zhJFM04Z9DMXD-48" value="" style="endArrow=none;dashed=1;html=1;rounded=0;" parent="1" target="wSOtUR4zhJFM04Z9DMXD-46" edge="1">
          <mxGeometry width="50" height="50" relative="1" as="geometry">
            <mxPoint x="1060" y="810" as="sourcePoint" />
            <mxPoint x="1060" y="168" as="targetPoint" />
            <Array as="points">
              <mxPoint x="1060" y="490" />
            </Array>
          </mxGeometry>
        </mxCell>
        <mxCell id="wSOtUR4zhJFM04Z9DMXD-46" value="" style="html=1;points=[[0,0,0,0,5],[0,1,0,0,-5],[1,0,0,0,5],[1,1,0,0,-5]];perimeter=orthogonalPerimeter;outlineConnect=0;targetShapes=umlLifeline;portConstraint=eastwest;newEdgeStyle={&quot;curved&quot;:0,&quot;rounded&quot;:0};" parent="1" vertex="1">
          <mxGeometry x="1050" y="390" width="10" height="150" as="geometry" />
        </mxCell>
        <mxCell id="wSOtUR4zhJFM04Z9DMXD-49" value="" style="html=1;points=[[0,0,0,0,5],[0,1,0,0,-5],[1,0,0,0,5],[1,1,0,0,-5]];perimeter=orthogonalPerimeter;outlineConnect=0;targetShapes=umlLifeline;portConstraint=eastwest;newEdgeStyle={&quot;curved&quot;:0,&quot;rounded&quot;:0};" parent="1" vertex="1">
          <mxGeometry x="1060" y="428.02" width="10" height="81.98" as="geometry" />
        </mxCell>
        <mxCell id="wSOtUR4zhJFM04Z9DMXD-50" value="update()" style="html=1;align=left;spacingLeft=2;endArrow=block;rounded=0;edgeStyle=orthogonalEdgeStyle;curved=0;rounded=0;exitX=1;exitY=0.281;exitDx=0;exitDy=0;exitPerimeter=0;" parent="1" target="wSOtUR4zhJFM04Z9DMXD-49" edge="1">
          <mxGeometry x="0.1333" relative="1" as="geometry">
            <mxPoint x="1060" y="414.0039999999999" as="sourcePoint" />
            <Array as="points">
              <mxPoint x="1095" y="414.02" />
              <mxPoint x="1095" y="444.02" />
            </Array>
            <mxPoint as="offset" />
          </mxGeometry>
        </mxCell>
        <mxCell id="wSOtUR4zhJFM04Z9DMXD-51" value="" style="endArrow=classic;html=1;rounded=0;" parent="1" edge="1">
          <mxGeometry width="50" height="50" relative="1" as="geometry">
            <mxPoint x="1060" y="468.51" as="sourcePoint" />
            <mxPoint x="390" y="468.51" as="targetPoint" />
          </mxGeometry>
        </mxCell>
        <mxCell id="wSOtUR4zhJFM04Z9DMXD-52" value="getReport()" style="text;html=1;align=center;verticalAlign=middle;resizable=0;points=[];autosize=1;strokeColor=none;fillColor=none;" parent="1" vertex="1">
          <mxGeometry x="430" y="445" width="80" height="30" as="geometry" />
        </mxCell>
        <mxCell id="wSOtUR4zhJFM04Z9DMXD-54" value="" style="endArrow=open;html=1;rounded=0;endFill=0;dashed=1;" parent="1" edge="1">
          <mxGeometry width="50" height="50" relative="1" as="geometry">
            <mxPoint x="390" y="500" as="sourcePoint" />
            <mxPoint x="1060" y="500" as="targetPoint" />
          </mxGeometry>
        </mxCell>
        <mxCell id="wSOtUR4zhJFM04Z9DMXD-55" value="return resport" style="text;html=1;align=center;verticalAlign=middle;resizable=0;points=[];autosize=1;strokeColor=none;fillColor=none;" parent="1" vertex="1">
          <mxGeometry x="410" y="478" width="100" height="30" as="geometry" />
        </mxCell>
        <mxCell id="wSOtUR4zhJFM04Z9DMXD-56" value="" style="endArrow=open;html=1;rounded=0;entryX=1;entryY=0.91;entryDx=0;entryDy=0;entryPerimeter=0;exitX=0;exitY=1;exitDx=0;exitDy=-5;exitPerimeter=0;endFill=0;" parent="1" edge="1">
          <mxGeometry width="50" height="50" relative="1" as="geometry">
            <mxPoint x="1050" y="530" as="sourcePoint" />
            <mxPoint x="390" y="530.02" as="targetPoint" />
          </mxGeometry>
        </mxCell>
        <mxCell id="wSOtUR4zhJFM04Z9DMXD-57" value="" style="endArrow=open;html=1;rounded=0;exitX=0;exitY=1;exitDx=0;exitDy=-5;exitPerimeter=0;endFill=0;" parent="1" source="wSOtUR4zhJFM04Z9DMXD-40" edge="1">
          <mxGeometry width="50" height="50" relative="1" as="geometry">
            <mxPoint x="560" y="500" as="sourcePoint" />
            <mxPoint x="110" y="565" as="targetPoint" />
          </mxGeometry>
        </mxCell>
        <mxCell id="wSOtUR4zhJFM04Z9DMXD-58" value="" style="endArrow=classic;html=1;rounded=0;" parent="1" target="wSOtUR4zhJFM04Z9DMXD-59" edge="1">
          <mxGeometry width="50" height="50" relative="1" as="geometry">
            <mxPoint x="110" y="610" as="sourcePoint" />
            <mxPoint x="610" y="450" as="targetPoint" />
          </mxGeometry>
        </mxCell>
        <mxCell id="wSOtUR4zhJFM04Z9DMXD-59" value="" style="html=1;points=[[0,0,0,0,5],[0,1,0,0,-5],[1,0,0,0,5],[1,1,0,0,-5]];perimeter=orthogonalPerimeter;outlineConnect=0;targetShapes=umlLifeline;portConstraint=eastwest;newEdgeStyle={&quot;curved&quot;:0,&quot;rounded&quot;:0};" parent="1" vertex="1">
          <mxGeometry x="380" y="590" width="10" height="100" as="geometry" />
        </mxCell>
        <mxCell id="wSOtUR4zhJFM04Z9DMXD-60" value="derigster(consumer)" style="text;html=1;align=center;verticalAlign=middle;resizable=0;points=[];autosize=1;strokeColor=none;fillColor=none;" parent="1" vertex="1">
          <mxGeometry x="155" y="588" width="130" height="30" as="geometry" />
        </mxCell>
        <mxCell id="wSOtUR4zhJFM04Z9DMXD-61" value="" style="html=1;points=[[0,0,0,0,5],[0,1,0,0,-5],[1,0,0,0,5],[1,1,0,0,-5]];perimeter=orthogonalPerimeter;outlineConnect=0;targetShapes=umlLifeline;portConstraint=eastwest;newEdgeStyle={&quot;curved&quot;:0,&quot;rounded&quot;:0};" parent="1" vertex="1">
          <mxGeometry x="585" y="618" width="10" height="50" as="geometry" />
        </mxCell>
        <mxCell id="wSOtUR4zhJFM04Z9DMXD-62" value="" style="endArrow=classic;html=1;rounded=0;" parent="1" edge="1">
          <mxGeometry width="50" height="50" relative="1" as="geometry">
            <mxPoint x="390" y="630" as="sourcePoint" />
            <mxPoint x="585" y="630" as="targetPoint" />
          </mxGeometry>
        </mxCell>
        <mxCell id="wSOtUR4zhJFM04Z9DMXD-63" value="remove(consumer)" style="text;html=1;align=center;verticalAlign=middle;resizable=0;points=[];autosize=1;strokeColor=none;fillColor=none;" parent="1" vertex="1">
          <mxGeometry x="410" y="610" width="120" height="30" as="geometry" />
        </mxCell>
        <mxCell id="wSOtUR4zhJFM04Z9DMXD-64" value="" style="endArrow=open;html=1;rounded=0;endFill=0;" parent="1" edge="1">
          <mxGeometry width="50" height="50" relative="1" as="geometry">
            <mxPoint x="585" y="660" as="sourcePoint" />
            <mxPoint x="390" y="660" as="targetPoint" />
          </mxGeometry>
        </mxCell>
        <mxCell id="wSOtUR4zhJFM04Z9DMXD-67" value="" style="endArrow=open;html=1;rounded=0;exitX=0;exitY=1;exitDx=0;exitDy=-5;exitPerimeter=0;endFill=0;" parent="1" source="wSOtUR4zhJFM04Z9DMXD-59" edge="1">
          <mxGeometry width="50" height="50" relative="1" as="geometry">
            <mxPoint x="560" y="500" as="sourcePoint" />
            <mxPoint x="110" y="685" as="targetPoint" />
          </mxGeometry>
        </mxCell>
        <mxCell id="nhgZxFsFed5-86Hj7rhd-1" value="new()" style="text;html=1;align=center;verticalAlign=middle;resizable=0;points=[];autosize=1;strokeColor=none;fillColor=none;" vertex="1" parent="1">
          <mxGeometry x="215" y="108" width="50" height="30" as="geometry" />
        </mxCell>
      </root>
    </mxGraphModel>
  </diagram>
</mxfile>
